<?xml version="1.0" standalone="no"?>
<!DOCTYPE svg PUBLIC "-//W3C//DTD SVG 20010904//EN"
 "http://www.w3.org/TR/2001/REC-SVG-20010904/DTD/svg10.dtd">
<svg version="1.0" xmlns="http://www.w3.org/2000/svg"
 width="1000.000000pt" height="1000.000000pt" viewBox="0 0 1000.000000 1000.000000"
 preserveAspectRatio="xMidYMid meet">

<g transform="translate(0.000000,1000.000000) scale(0.100000,-0.100000)"
fill="#000000" stroke="none">
<path d="M4755 8324 c-654 -64 -1172 -250 -1667 -597 -703 -494 -1191 -1243
-1357 -2083 -46 -235 -55 -337 -55 -644 0 -307 9 -409 55 -644 212 -1074 948
-1985 1953 -2416 287 -123 564 -199 897 -247 176 -25 662 -25 838 0 761 108
1412 428 1936 952 524 524 844 1175 952 1936 25 176 25 662 0 838 -108 761
-428 1412 -952 1936 -522 522 -1179 845 -1930 951 -105 14 -577 27 -670 18z
m673 -218 c368 -56 678 -154 987 -311 859 -435 1479 -1253 1658 -2185 47 -241
52 -301 52 -610 0 -309 -5 -369 -52 -610 -236 -1230 -1233 -2227 -2463 -2463
-241 -47 -301 -52 -610 -52 -309 0 -369 5 -610 52 -1230 236 -2227 1233 -2463
2463 -47 241 -52 301 -52 610 0 309 5 369 52 610 236 1226 1220 2214 2448
2460 77 16 183 33 235 39 52 6 109 13 125 15 77 11 595 -3 693 -18z"/>
<path d="M4795 7769 c-557 -42 -1083 -249 -1529 -602 -115 -91 -322 -296 -412
-407 -89 -110 -166 -221 -159 -228 12 -12 433 -4 688 13 224 15 249 15 276 0
68 -35 80 -135 23 -186 -32 -29 -48 -32 -256 -49 -66 -6 -121 -11 -122 -13 -3
-4 1001 -2987 1006 -2987 7 0 600 1782 600 1804 0 14 -414 1168 -424 1183 -1
1 -72 9 -158 17 -90 9 -169 21 -185 30 -74 38 -69 162 8 202 28 14 50 14 188
5 461 -33 767 -33 1223 0 119 8 153 8 174 -3 61 -29 85 -104 54 -163 -26 -49
-46 -54 -332 -80 -38 -4 -68 -10 -68 -13 0 -27 995 -2960 1001 -2950 4 7 86
265 184 573 267 849 302 1002 292 1285 -10 278 -76 465 -280 800 -188 309
-241 479 -204 656 29 135 121 270 225 331 60 35 154 63 215 63 l51 0 -44 38
c-430 371 -947 602 -1494 666 -164 20 -395 26 -541 15z"/>
<path d="M7448 6270 c13 -105 6 -410 -12 -535 -23 -156 -82 -387 -141 -550
-107 -299 -892 -2570 -889 -2574 5 -5 98 53 194 122 320 228 594 525 789 854
197 333 316 684 367 1082 20 153 22 482 5 631 -38 322 -132 645 -271 925 l-49
100 7 -55z"/>
<path d="M2441 6075 c-38 -84 -119 -334 -145 -450 -89 -387 -94 -800 -15
-1185 86 -419 282 -838 555 -1180 104 -130 345 -365 479 -466 159 -119 447
-295 461 -282 3 4 -1153 3184 -1304 3588 -9 23 -10 23 -31 -25z"/>
<path d="M4631 3539 c-227 -660 -412 -1202 -410 -1204 7 -6 213 -54 299 -69
164 -29 287 -39 485 -39 292 1 546 38 803 118 l112 36 -13 27 c-7 15 -202 546
-433 1179 -230 634 -422 1153 -425 1153 -3 0 -191 -540 -418 -1201z"/>
</g>
</svg>
