<svg xmlns="http://www.w3.org/2000/svg" xmlns:xlink="http://www.w3.org/1999/xlink" version="1.1" viewBox="289 419 223 162">
    <!-- Generator: Sketch 64 (93537) - https://sketch.com -->
    <title>shrug_DL</title>
    <desc>Created with Sketch.</desc>
    <g id="shrug_DL" stroke="none" stroke-width="1" fill="none" fill-rule="evenodd" stroke-linecap="round" stroke-linejoin="round">
        <g id="shrug" transform="translate(297.000000, 427.000000)" stroke="#000000" stroke-width="16">
            <path d="M75,72.2873985 C73.8481725,74.1532488 66.161104,79.5484465 59.9814211,86.6631463 C53.7965385,93.7838326 49.1191412,102.623942 48.2117921,104.294399 C47.5322388,105.543789 46.8269856,106.773313 46.118744,108 C45.4332139,105.702712 44.7010654,103.425999 43.932459,101.160637 C42.5524338,97.0974599 41.1957178,93.0236403 39.7039279,89.0158021 C39.0805558,87.3421448 38.4972277,85.635142 37.812893,83.9912827 C36.8769383,81.7521719 35.9427766,79.5102231 35.0068218,77.2711122 C34.0266394,74.9177755 32.8874761,72.6644751 31.7967243,70.3813766 C31.3604236,69.4640222 30.9563971,68.5076466 30.4710873,67.6236377 C29.6702065,66.1599857 28.866935,64.6970432 28.0636635,63.2333912 C25.9819711,59.4341394 23.6988632,55.8165138 21.3601718,52.2428758 C21.0547613,50.9416942 20.4971331,49.7192645 19.6872872,48.7919775 C19.6215433,48.7146444 19.5540063,48.6394398 19.48886,48.5649447 C19.1135068,48.1220815 12.2293484,48.986905 7.8152559,47.5706658 C2.9727777,46.0169811 0.558108774,42.1855779 0,42" id="Path"/>
            <path d="M126,70.1104064 C127.826106,70.7899852 129.72119,71.436039 131.289536,72.5989359 C132.917421,73.8072312 134.516988,75.0106374 135.96916,76.4179872 C137.174462,77.5857731 138.320226,78.8080371 139.389751,80.0931605 C140.597957,81.5473054 141.834482,82.9986566 142.946119,84.5212484 L147.58363,90.8805135 C149.072832,92.9213452 150.564939,94.9593831 152.053415,96.997421 C153.080101,98.4026754 154.193916,99.7541502 155.291032,101.111911 C155.179215,100.971525 155.067398,100.831838 154.954854,100.691452 C156.387422,102.323 157.802563,103.957342 159.320083,105.517649 C160.752651,106.988556 162.24984,108.393811 163.773168,109.779509 C164.964675,110.865578 166.161265,111.944662 167.381089,113 C170.114802,106.429807 172.913864,99.8896469 175.878472,93.4095523 C178.636147,87.3799493 181.481678,81.3915541 184.231365,75.3591573 C185.490398,72.2085099 186.723292,69.0613546 187.85889,65.8653088 C188.454281,64.1925532 189.032971,62.5149086 189.651596,60.8505342 C189.960183,60.0159025 190.269495,59.1812708 190.623825,58.3599093 C191.219942,56.981894 191.707872,55.527749 192.847827,54.4556489 C196.286338,53.9610264 198.865459,53.3822383 200.585188,52.7192845 C202.304916,52.0563308 204.443187,50.8165693 207,49" id="Path"/>
            <path d="M75.1484095,72 C75.1417139,75.3141643 75.0132798,78.6310798 74.6991947,81.9347894 C74.4922394,84.1077322 74.2877189,86.2806751 74.0430247,88.4514169 C73.5390277,92.9266117 77.6292886,134.027389 77.6292886,135.966475 C77.6292886,137.513782 77.495985,139.054486 77.3097253,140.592989 C77.2555517,140.953954 77.2044215,141.315469 77.1539001,141.677534 C77.1301611,141.84261 77.1064221,142.010436 77.1277263,142.176062 C77.1295524,142.84902 77.296334,143.48401 77.630506,144.07553" id="Path"/>
            <path d="M126,70 C126.395237,71.3211576 126.830331,72.6518932 127.106001,73.9892136 C127.384161,75.3379078 134.082439,134.328677 134.631288,136.914123 C134.823094,138.487899 135.003276,140.0509 135,141.631859 C134.996633,142.525002 134.989991,143.41635 134.967572,144.309493 C134.957608,144.87519 134.935189,145.434303 134.974215,146" id="Path"/>
            <path d="M80.8804639,13.7286537 C87.913001,4.61918654 96.8614356,-2.0862768 109.127158,0.597587699 C143.692903,8.15942491 137.044114,61.537264 102.850747,63.9412678 C75.1640402,65.8890985 64.8056871,18.7857372 87.1568754,12.1838224" id="Path"/>
        </g>
    </g>
</svg>