<?xml version="1.0" standalone="no"?>
<!DOCTYPE svg PUBLIC "-//W3C//DTD SVG 20010904//EN"
 "http://www.w3.org/TR/2001/REC-SVG-20010904/DTD/svg10.dtd">
<svg version="1.0" xmlns="http://www.w3.org/2000/svg"
 width="300.000000pt" height="300.000000pt" viewBox="0 0 300.000000 300.000000"
 preserveAspectRatio="xMidYMid meet">
<metadata>
Created by potrace 1.14, written by Peter Selinger 2001-2017
</metadata>
<g transform="translate(0.000000,300.000000) scale(0.100000,-0.100000)"
fill="#000000" stroke="none">
<path d="M1940 2774 c0 -10 -8 -26 -17 -36 -19 -21 -27 -52 -11 -42 7 5 8 2 2
-7 -9 -14 -10 -19 -13 -39 0 -5 -7 -10 -14 -10 -8 0 -24 -11 -36 -24 -29 -31
-81 -29 -117 5 -21 20 -27 21 -35 9 -9 -12 -10 -12 -5 3 4 12 0 20 -12 23 -9
3 -25 10 -35 15 -10 5 -23 7 -29 3 -6 -4 -8 -3 -4 4 6 9 -23 25 -49 27 -5 0
-10 7 -10 15 0 19 -61 50 -97 50 -15 0 -52 -9 -82 -21 -38 -14 -77 -20 -123
-19 -196 4 -184 6 -223 -39 -20 -23 -44 -41 -56 -41 -37 0 -86 -43 -119 -104
-17 -32 -55 -80 -83 -106 -34 -32 -52 -56 -52 -71 0 -29 -50 -130 -61 -124
-15 10 -48 -47 -59 -101 -7 -30 -27 -87 -47 -126 -27 -56 -33 -78 -28 -104 3
-19 0 -53 -6 -76 -17 -60 -11 -112 17 -166 13 -25 24 -54 24 -64 0 -11 5 -28
10 -39 9 -16 14 -17 32 -8 11 6 40 9 64 6 24 -2 48 0 55 7 9 8 10 8 5 -1 -4
-7 -2 -13 3 -13 6 0 11 -5 11 -11 0 -5 -4 -8 -8 -5 -5 3 -7 -9 -4 -27 4 -31 3
-31 -12 -11 -17 23 -96 50 -121 41 -17 -7 -20 -39 -5 -65 5 -9 16 -56 24 -104
9 -55 22 -99 36 -118 29 -41 5 -39 -32 3 l-28 32 11 -30 c5 -16 21 -40 34 -53
13 -12 31 -45 39 -72 20 -66 66 -132 121 -171 25 -18 45 -36 45 -40 0 -4 27
-27 60 -51 66 -48 65 -47 87 -138 17 -72 20 -235 4 -254 -7 -9 -7 -16 1 -24 9
-9 7 -12 -10 -12 -12 0 -22 -5 -22 -10 0 -20 28 -65 59 -94 25 -24 33 -27 46
-16 12 10 15 10 15 0 0 -8 3 -10 6 -7 4 4 1 13 -6 22 -7 9 -10 18 -6 22 3 3 6
1 6 -5 0 -7 8 -12 18 -12 13 0 14 2 4 9 -11 7 -11 9 2 14 9 4 16 1 17 -6 0 -7
4 -3 8 8 5 11 6 36 4 55 -4 27 -2 31 6 20 8 -12 11 -5 12 30 1 41 2 43 9 15 6
-24 8 -26 9 -7 1 15 7 22 22 22 11 0 18 4 14 9 -9 16 36 25 46 10 8 -12 11
-12 18 1 6 8 13 11 17 7 4 -4 0 -13 -9 -20 -12 -8 -14 -16 -7 -27 8 -12 10
-12 10 5 1 17 2 17 11 -4 7 -18 6 -27 -3 -33 -8 -5 -9 -8 -2 -8 7 0 14 -12 17
-28 3 -15 13 -52 22 -82 9 -30 23 -81 30 -113 12 -53 53 -132 64 -122 2 3 -1
10 -6 17 -11 14 -9 92 2 120 4 9 4 21 2 25 -3 5 -2 15 4 23 6 11 9 12 9 2 0
-7 4 -11 8 -8 11 6 7 80 -8 161 -6 33 -12 68 -13 78 -1 9 -5 17 -9 17 -4 0 -5
7 -2 15 4 9 0 16 -7 16 -8 1 0 5 16 9 25 6 26 8 7 9 -20 1 -21 3 -11 23 12 22
12 22 20 3 7 -18 8 -18 8 -2 1 10 6 15 11 12 6 -3 10 1 10 9 0 22 32 36 83 36
64 0 67 13 5 26 l-53 10 40 18 c30 13 64 17 138 15 54 -1 101 1 104 5 11 10
34 7 48 -8 8 -7 11 -17 7 -20 -19 -19 -43 -158 -42 -240 1 -54 -2 -86 -8 -82
-5 3 -17 -5 -26 -19 -10 -15 -12 -26 -5 -30 5 -4 7 -15 4 -26 -4 -10 -2 -27 4
-36 10 -17 11 -16 17 5 5 18 9 20 20 11 11 -9 14 -7 15 7 1 11 3 33 5 49 10
89 15 124 23 165 5 25 8 47 5 49 -2 2 11 23 28 47 22 31 34 41 40 32 5 -10 8
-8 8 5 0 13 9 17 41 17 40 0 41 1 35 27 -5 23 -4 25 4 11 17 -28 30 -21 30 17
0 29 -3 33 -17 28 -17 -7 -17 -5 -2 17 10 16 18 57 22 110 3 55 14 110 31 156
32 89 33 114 1 148 -26 28 -33 70 -13 82 6 4 8 3 4 -4 -8 -13 25 -25 48 -16
12 5 16 0 16 -16 0 -16 -4 -20 -15 -16 -8 3 -15 1 -15 -4 0 -6 14 -10 30 -10
23 0 30 5 30 19 0 32 19 35 57 8 l35 -25 33 19 c31 18 42 19 145 10 89 -7 123
-6 166 5 158 41 244 134 244 261 l0 58 -49 2 c-27 2 -86 16 -132 33 -82 31
-109 32 -109 8 0 -7 -10 -31 -22 -53 -15 -28 -22 -61 -24 -112 -1 -40 -5 -77
-9 -83 -9 -15 -106 -12 -139 5 -34 18 -70 20 -60 4 11 -18 -18 -28 -63 -22
-33 4 -44 2 -48 -10 -4 -9 -14 -13 -26 -10 -10 3 -19 0 -19 -6 0 -13 -47 -5
-68 12 -9 7 -19 4 -34 -9 -12 -11 -18 -13 -14 -6 7 12 -9 17 -48 13 -11 -1
-28 7 -39 16 -11 10 -17 12 -13 6 11 -19 -48 -20 -70 -2 -6 5 -14 6 -17 2 -4
-3 -7 -2 -7 4 0 6 -18 10 -39 9 -29 0 -47 6 -64 22 -18 17 -38 24 -76 25 -28
1 -51 -1 -51 -5 0 -14 -59 -19 -79 -7 -17 11 -23 10 -40 -5 -11 -10 -27 -16
-34 -13 -9 3 -19 -4 -25 -18 -13 -28 -47 -24 -55 7 -7 25 26 61 42 45 14 -14
15 11 2 32 -5 7 -6 25 -2 39 6 23 13 26 61 29 29 2 61 10 70 18 23 21 109 20
116 0 5 -12 10 -13 20 -4 8 6 21 8 31 4 10 -5 26 -7 35 -6 9 1 22 -8 29 -20 6
-13 20 -32 30 -43 11 -11 19 -29 19 -40 0 -17 2 -18 10 -6 8 12 10 10 10 -10
1 -25 1 -25 13 -4 7 12 20 20 30 18 14 -2 17 3 14 24 -4 34 -27 82 -39 82 -4
0 -8 6 -8 14 0 7 -21 23 -47 34 -43 18 -68 20 -239 18 -171 -1 -194 -3 -212
-19 -12 -11 -26 -16 -33 -11 -8 4 -10 3 -5 -4 4 -7 -4 -23 -18 -37 -15 -14
-26 -34 -27 -43 0 -10 -3 -12 -6 -4 -6 16 -23 15 -23 -2 0 -21 26 -40 36 -25
9 15 43 -27 44 -53 0 -20 29 -58 44 -58 5 0 17 -7 27 -16 11 -10 27 -14 41
-11 13 4 26 5 29 4 3 -1 13 6 23 16 10 9 23 17 31 17 7 0 15 5 17 12 3 8 27
11 74 10 104 -3 140 -13 149 -42 3 -10 25 -26 49 -35 27 -11 48 -26 55 -42 7
-14 14 -23 18 -19 3 3 14 -4 25 -16 10 -12 28 -22 41 -24 12 -1 25 -3 30 -3
24 -3 -22 -111 -69 -159 -46 -48 -131 -101 -174 -108 -19 -4 -39 -10 -45 -14
-5 -4 -21 -10 -34 -13 -17 -4 -24 -1 -28 13 -3 10 -11 16 -18 14 -7 -3 -32 4
-56 15 -24 11 -70 29 -101 40 -107 37 -170 97 -231 221 -23 47 -45 87 -48 90
-4 3 -10 22 -14 42 -4 21 -11 35 -16 32 -5 -3 -9 4 -9 15 0 10 -5 21 -11 23
-6 2 -12 20 -14 40 -2 21 -6 42 -10 48 -10 16 -25 1 -18 -17 6 -15 5 -15 -8
-3 -8 7 -15 21 -15 29 2 49 -17 150 -27 144 -6 -4 -8 0 -4 10 4 10 2 17 -4 17
-7 0 -9 -10 -5 -23 4 -17 1 -24 -9 -24 -8 0 -14 5 -13 11 2 7 -1 12 -6 13 -16
2 -25 27 -14 34 14 9 17 23 22 118 3 65 2 73 -10 56 -22 -29 -24 -14 -4 27 9
20 20 48 24 63 5 21 11 25 28 19 11 -3 18 -2 15 3 -3 5 2 9 12 9 19 0 24 -36
7 -48 -23 -16 16 -7 54 12 21 11 46 17 54 14 9 -3 16 -2 16 4 0 19 115 35 160
22 32 -9 60 -3 33 7 -15 5 -18 33 -4 33 5 0 17 -7 26 -16 15 -16 16 -14 9 22
-8 46 -21 74 -34 74 -6 0 -10 7 -10 15 0 8 -8 19 -19 24 -24 13 -112 20 -131
10 -8 -4 -35 -15 -60 -25 -55 -23 -72 -38 -64 -58 5 -12 0 -16 -18 -16 -16 0
-29 -9 -38 -25 -7 -14 -17 -25 -21 -25 -13 0 -39 43 -39 66 0 12 -10 25 -24
32 -22 10 -24 8 -31 -24 -3 -20 -10 -32 -16 -28 -11 6 -9 29 6 69 7 20 7 20
-9 0 -16 -19 -16 -17 -14 26 2 26 9 52 16 58 9 9 12 9 12 -1 0 -9 3 -9 10 2 5
8 10 11 10 6 0 -5 14 8 30 29 17 21 30 44 30 51 0 7 9 16 20 19 11 4 17 11 14
17 -5 7 -2 8 5 3 9 -5 7 -13 -8 -29 -12 -12 -21 -32 -21 -44 0 -18 6 -22 34
-22 19 0 37 4 40 9 3 5 29 20 58 35 91 46 122 66 142 93 11 15 14 23 8 19 -7
-4 -12 -1 -12 10 0 12 6 15 22 11 12 -4 27 -2 34 4 7 6 75 12 151 15 76 3 157
9 181 15 24 5 48 6 54 3 7 -4 8 -3 4 4 -5 8 6 11 37 8 47 -3 83 -25 192 -113
65 -53 129 -158 122 -200 -2 -12 0 -20 4 -17 5 3 9 1 9 -5 0 -5 8 -12 18 -14
9 -2 7 -3 -5 -2 -12 1 -24 -4 -27 -12 -8 -20 -7 -25 3 -19 5 3 9 -5 9 -18 0
-13 4 -46 10 -72 25 -112 25 -125 2 -131 -15 -4 -18 -9 -10 -18 6 -7 10 -17 9
-21 -4 -17 14 -89 27 -109 13 -20 13 -69 1 -81 -3 -3 -3 -12 -1 -19 3 -8 -5
-19 -18 -27 -25 -14 -25 -16 -34 -123 l-7 -71 47 1 47 0 0 70 c-1 39 2 87 5
109 6 37 8 38 39 33 31 -5 32 -4 43 45 14 60 15 109 2 165 -6 24 -6 52 -1 65
5 14 3 45 -6 82 -14 63 -29 90 -44 80 -5 -3 -9 2 -9 10 0 9 5 16 10 16 7 0 6
8 -2 23 -7 12 -14 29 -15 37 -4 23 -31 152 -39 184 -10 44 -28 73 -57 96 -15
12 -45 47 -68 80 -22 32 -47 61 -55 64 -8 3 -14 12 -14 20 0 7 -7 16 -15 20
-8 3 -14 0 -12 -7 1 -7 -7 -12 -18 -12 -12 0 -19 6 -17 14 2 11 0 12 -10 3 -9
-7 -19 -7 -28 -2 -13 8 -12 12 3 27 15 16 19 16 27 3 9 -13 10 -13 10 1 0 9
13 29 30 45 33 32 38 52 15 60 -18 7 -10 24 11 24 8 0 14 -6 14 -14 0 -8 3
-17 8 -19 13 -9 9 67 -5 81 -11 11 -13 11 -13 -4z m-757 -444 c-3 -12 -8 -19
-11 -16 -5 6 5 36 12 36 2 0 2 -9 -1 -20z m22 -220 c3 -6 -1 -7 -9 -4 -18 7
-21 14 -7 14 6 0 13 -4 16 -10z m-29 -12 c4 -6 3 -8 -3 -5 -6 4 -13 -2 -16
-13 -3 -11 -11 -20 -19 -19 -10 0 -10 2 0 6 6 2 12 9 12 14 0 6 -4 7 -10 4 -5
-3 -10 -2 -10 4 0 5 8 12 18 14 9 3 18 5 19 6 1 0 5 -4 9 -11z m104 -48 c19
-10 44 -28 55 -41 13 -16 14 -19 3 -11 -33 26 -143 13 -200 -24 -46 -29 -54
-30 -61 -4 -4 14 4 25 29 41 19 11 40 26 47 32 42 39 62 40 127 7z m-427 -160
c3 -11 1 -18 -4 -14 -5 3 -9 12 -9 20 0 20 7 17 13 -6z m1841 -346 c17 -7 22
-54 6 -54 -5 0 -9 -3 -9 -7 4 -25 -3 -34 -23 -31 -31 4 -39 65 -12 85 21 15
18 15 38 7z m-1914 -54 c0 -5 6 -10 13 -10 8 0 19 -12 26 -27 7 -16 24 -46 39
-67 19 -27 23 -41 15 -43 -7 -3 -13 -9 -13 -14 0 -4 7 -6 15 -3 10 4 15 0 15
-12 -1 -25 -76 -81 -120 -89 -32 -5 -39 -2 -80 40 -42 44 -45 51 -51 118 -4
40 -3 76 1 81 9 9 15 7 60 -19 28 -16 28 -16 33 14 5 30 47 58 47 31z m350
-200 c11 -22 17 -40 13 -40 -5 0 -16 18 -25 40 -21 52 -14 52 12 0z m-99 -69
c7 11 9 11 9 -2 0 -9 -7 -19 -15 -23 -11 -4 -15 2 -14 22 1 19 3 22 6 8 4 -15
7 -16 14 -5z m934 -177 c-1 -25 -7 -49 -12 -53 -6 -3 -12 -13 -15 -21 -3 -10
-6 -6 -10 11 -4 21 24 109 35 109 2 0 3 -21 2 -46z m-403 -206 c10 0 20 -3 23
-9 4 -5 11 -9 16 -9 6 0 7 5 4 10 -10 17 3 11 30 -12 35 -30 31 -42 -10 -35
-19 3 -35 2 -35 -4 0 -5 -4 -9 -10 -9 -5 0 -10 7 -10 15 0 8 -6 12 -15 9 -9
-4 -16 3 -21 20 -3 14 -10 23 -15 20 -5 -3 -9 0 -9 6 0 8 7 9 18 5 9 -4 25 -7
34 -7z m133 -48 c3 -5 -1 -10 -9 -10 -9 0 -16 5 -16 10 0 6 4 10 9 10 6 0 13
-4 16 -10z m282 -72 c-3 -8 -6 -5 -6 6 -1 11 2 17 5 13 3 -3 4 -12 1 -19z
m-47 -29 c0 -6 -4 -7 -10 -4 -5 3 -10 11 -10 16 0 6 5 7 10 4 6 -3 10 -11 10
-16z m-863 -106 c1 -36 1 -37 -6 -8 -6 26 -5 45 3 45 1 0 2 -17 3 -37z m13
-154 c0 -4 3 -15 6 -24 4 -10 2 -15 -7 -13 -28 6 -40 45 -14 45 8 0 15 -4 15
-8z m-33 -74 c0 -8 -4 -12 -9 -9 -5 3 -6 10 -3 15 9 13 12 11 12 -6z m720 -57
c-3 -8 -6 -5 -6 6 -1 11 2 17 5 13 3 -3 4 -12 1 -19z"/>
<path d="M723 1409 c-20 -20 -15 -57 7 -69 27 -15 35 7 18 49 -10 26 -15 30
-25 20z"/>
<path d="M1945 2635 c-3 -8 -7 -22 -10 -31 -5 -14 -3 -15 9 -5 8 7 12 20 9 28
-5 12 -3 14 7 8 9 -5 11 -4 6 3 -10 16 -16 15 -21 -3z"/>
<path d="M1723 2153 c-7 -3 -13 -12 -14 -21 0 -11 -2 -12 -6 -4 -7 17 -30 15
-37 -4 -3 -9 -11 -12 -18 -8 -8 5 -9 2 -5 -9 3 -10 2 -17 -3 -17 -6 0 -10 -9
-10 -20 0 -11 7 -20 15 -20 8 0 15 -3 15 -7 0 -5 11 -21 24 -36 23 -26 27 -28
62 -18 26 7 40 7 44 0 4 -5 35 -12 69 -14 42 -3 71 -12 88 -25 46 -36 48 -21
3 20 -26 23 -55 40 -70 41 -46 1 -125 9 -137 14 -7 2 -15 0 -18 -5 -4 -6 -13
-10 -21 -10 -14 0 -14 2 0 15 11 12 93 35 122 35 1 0 10 7 19 16 14 15 19 14
53 -12 20 -15 40 -32 43 -37 4 -5 10 4 14 22 4 20 11 29 18 24 7 -3 1 6 -12
20 -14 15 -27 27 -29 27 -3 0 3 -9 12 -19 12 -13 14 -21 6 -26 -5 -3 -8 -11
-5 -16 10 -15 -9 -9 -33 10 -13 12 -20 25 -16 35 4 10 1 16 -9 16 -8 0 -17 4
-19 10 -1 5 -14 11 -28 14 -14 2 -25 5 -25 7 0 4 -80 6 -92 2z"/>
<path d="M960 2105 c0 -8 2 -15 4 -15 2 0 6 7 10 15 3 8 1 15 -4 15 -6 0 -10
-7 -10 -15z"/>
<path d="M1453 2010 c-16 -38 -27 -50 -49 -55 -47 -11 -54 -14 -54 -26 0 -6 7
-9 14 -6 16 6 76 -19 88 -37 5 -7 8 -4 8 7 0 10 -7 17 -17 17 -14 0 -12 5 10
26 15 14 32 22 39 18 8 -5 9 -2 5 9 -4 11 1 20 13 27 25 13 26 32 3 28 -10 -2
-18 3 -19 10 -1 6 -2 17 -3 22 -3 23 -18 7 -38 -40z"/>
<path d="M1966 2017 c3 -10 9 -15 12 -12 3 3 0 11 -7 18 -10 9 -11 8 -5 -6z"/>
<path d="M2020 2014 c0 -13 18 -39 24 -34 2 3 -2 14 -10 24 -8 11 -14 16 -14
10z"/>
<path d="M1680 1942 c0 -6 6 -17 13 -24 20 -21 10 -96 -17 -123 -13 -13 -26
-21 -30 -18 -3 3 -11 2 -18 -4 -21 -16 -42 -9 -55 17 -7 14 -22 33 -35 43 -22
18 -23 18 -39 -2 -9 -11 -18 -18 -21 -16 -2 3 -21 7 -41 9 -29 4 -40 1 -52
-17 -29 -42 -11 -93 35 -97 42 -4 50 -1 43 16 -6 17 -15 19 103 -32 28 -12 43
-13 66 -5 26 9 31 8 35 -9 4 -15 11 -19 25 -14 13 4 18 2 14 -4 -3 -6 -2 -13
4 -17 5 -3 10 1 10 10 0 8 6 18 14 21 8 3 12 12 9 21 -3 8 -1 18 5 22 7 4 15
28 18 54 6 41 5 47 -9 41 -18 -7 -47 17 -47 38 0 8 3 9 8 3 9 -13 32 -17 32
-6 0 5 -7 11 -15 15 -8 3 -15 14 -15 24 0 10 -9 29 -20 42 -11 13 -20 18 -20
12z"/>
<path d="M1000 1910 c0 -5 9 -10 21 -10 11 0 17 -4 14 -10 -4 -6 1 -7 11 -3
14 5 13 8 -7 19 -29 16 -39 17 -39 4z"/>
<path d="M1477 1886 c-3 -8 0 -16 7 -19 6 -3 13 4 13 14 2 22 -12 25 -20 5z"/>
<path d="M1916 1627 c3 -10 9 -15 12 -12 3 3 0 11 -7 18 -10 9 -11 8 -5 -6z"/>
<path d="M1850 1588 c0 -7 5 -20 10 -28 8 -12 10 -11 10 7 0 12 -4 25 -10 28
-5 3 -10 0 -10 -7z"/>
<path d="M1941 1584 c0 -11 3 -14 6 -6 3 7 2 16 -1 19 -3 4 -6 -2 -5 -13z"/>
<path d="M2237 1532 c-27 -30 -20 -40 28 -40 47 1 52 7 35 39 -13 24 -42 25
-63 1z"/>
<path d="M2230 1368 c0 -4 7 -8 15 -8 8 0 15 4 15 8 0 5 -7 9 -15 9 -8 0 -15
-4 -15 -9z"/>
<path d="M2071 1214 c0 -11 3 -14 6 -6 3 7 2 16 -1 19 -3 4 -6 -2 -5 -13z"/>
<path d="M1557 458 c-6 -20 7 -68 18 -68 4 0 15 5 26 10 23 13 26 40 4 40 -8
0 -15 6 -15 14 0 23 -27 27 -33 4z"/>
<path d="M1615 460 c-3 -5 -2 -10 4 -10 5 0 13 5 16 10 3 6 2 10 -4 10 -5 0
-13 -4 -16 -10z"/>
<path d="M1075 300 c3 -5 8 -10 11 -10 2 0 4 5 4 10 0 6 -5 10 -11 10 -5 0 -7
-4 -4 -10z"/>
<path d="M1664 236 c-10 -8 -16 -17 -13 -21 11 -10 59 6 59 21 0 18 -21 18
-46 0z"/>
<path d="M825 210 c8 -27 35 -63 42 -56 3 3 -7 22 -22 43 -21 30 -25 33 -20
13z"/>
<path d="M748 154 c-5 -4 -8 -16 -8 -28 0 -14 3 -17 11 -9 6 6 9 19 7 28 -1 9
-6 13 -10 9z"/>
<path d="M668 143 c7 -3 16 -2 19 1 4 3 -2 6 -13 5 -11 0 -14 -3 -6 -6z"/>
<path d="M881 123 c7 -12 15 -20 18 -17 3 2 -3 12 -13 22 -17 16 -18 16 -5 -5z"/>
<path d="M630 63 c0 -43 5 -41 13 5 4 18 2 32 -3 32 -6 0 -10 -16 -10 -37z"/>
<path d="M726 71 c-16 -17 -16 -19 2 -23 13 -4 18 1 20 18 2 29 0 29 -22 5z"/>
<path d="M905 70 c4 -14 9 -35 12 -47 3 -13 10 -23 15 -23 11 0 2 34 -19 70
l-14 25 6 -25z"/>
</g>
</svg>
